<svg width="314" height="87" viewBox="0 0 314 87" fill="none" xmlns="http://www.w3.org/2000/svg">
<path d="M195.907 64.2637C195.201 64.2637 194.811 64.0393 194.555 63.6895C194.256 63.2813 194.027 62.5477 194.027 61.3281C194.027 60.5755 194.114 59.7496 194.294 58.8477L201.461 25H185.593L178.896 56.6084L178.895 56.6201C178.377 59.2094 178.107 61.3619 178.107 63.0557C178.107 67.0412 179.07 70.216 181.172 72.3906L181.178 72.3975L181.185 72.4033C183.317 74.5358 186.08 75.5761 189.379 75.5762C192.054 75.5762 194.648 74.8886 197.15 73.5361L197.149 73.5352C199.253 72.4257 201.21 70.5798 203.042 68.0635C203.567 70.0723 204.462 71.7336 205.774 72.9932L205.782 73L205.789 73.0068C207.676 74.7483 210.145 75.5761 213.091 75.5762C216.855 75.5762 220.541 74.2724 224.131 71.7461L224.134 71.7441C224.141 71.7389 224.148 71.7328 224.155 71.7275L223.462 75H239.33L246.018 43.4307C246.759 40.9087 247.73 38.9363 248.901 37.4727L248.907 37.4648L248.913 37.458C250.058 35.9693 251.262 35.3516 252.536 35.3516C253.42 35.3516 253.954 35.6455 254.312 36.1523C254.714 36.723 254.992 37.7032 254.992 39.248C254.992 40.4948 254.783 42.1797 254.341 44.3262C253.895 46.4922 253.416 48.6905 252.906 50.9209C252.768 51.4126 252.511 52.4437 252.14 53.9902L252.135 54.0088L252.132 54.0283C251.811 55.6312 251.49 57.2975 251.17 59.0273C250.841 60.738 250.672 62.3065 250.672 63.7275C250.672 67.0089 251.635 69.8386 253.598 72.1514L253.608 72.1631L253.619 72.1758C255.732 74.5075 258.933 75.5762 263 75.5762C266.584 75.5762 269.994 74.296 273.211 71.8164L273.213 71.8145C274.32 70.9561 275.367 69.8439 276.359 68.4883C276.983 69.6914 277.766 70.7489 278.716 71.6523L278.725 71.6611C281.584 74.3117 285.504 75.5762 290.349 75.5762C295.19 75.5762 299.164 74.3467 302.159 71.7842C305.151 69.2248 307.049 65.4365 307.94 60.5479L308.459 57.7041L306.294 59.6191C304.703 61.0267 302.927 62.1902 300.964 63.1104C299.015 64.0238 297.241 64.456 295.629 64.4561M195.907 64.2637V65.2637M195.907 64.2637C197.382 64.2637 198.652 63.6748 199.761 62.3994C200.916 61.0071 201.879 59.0794 202.617 56.5674L209.305 25H225.173L218.006 58.8477L218 58.873L217.993 58.8975C217.762 59.7658 217.644 60.7028 217.644 61.7119C217.644 62.8247 217.889 63.4296 218.178 63.7471C218.565 64.0312 219.301 64.2637 220.579 64.2637M195.907 65.2637L195.73 65.2598C194.045 65.1856 193.147 64.0342 193.038 61.8047L193.027 61.3281C193.027 60.4961 193.123 59.5996 193.315 58.6396L200.228 26H186.403L179.875 56.8164C179.363 59.376 179.107 61.4558 179.107 63.0557L179.118 63.7646C179.227 67.2522 180.152 69.8963 181.892 71.6963C183.691 73.496 185.997 74.4519 188.81 74.5645L189.379 74.5762C191.875 74.5762 194.307 73.9361 196.675 72.6562C199.107 71.3763 201.411 68.9759 203.587 65.4561C203.907 68.464 204.867 70.7365 206.467 72.2725C208.027 73.7125 210.066 74.4775 212.582 74.5674L213.091 74.5762C216.391 74.5762 219.663 73.5077 222.907 71.3701L223.556 70.9277C224.316 70.3883 225.049 69.7447 225.756 68.999L224.696 74H238.52L245.048 43.1836C245.768 40.7239 246.713 38.7142 247.883 37.1543L248.12 36.8477C249.4 35.1838 250.872 34.3516 252.536 34.3516L252.749 34.3564C254.911 34.4554 255.992 36.0862 255.992 39.248L255.981 39.7715C255.932 41.0385 255.712 42.6243 255.32 44.5283L254.978 46.166C254.63 47.81 254.264 49.4724 253.88 51.1523C253.752 51.6005 253.496 52.6243 253.112 54.2236L252.632 56.6719C252.472 57.5038 252.312 58.3519 252.152 59.2158C251.832 60.8796 251.672 62.3837 251.672 63.7275L251.683 64.2988C251.788 67.1224 252.68 69.524 254.36 71.5039C256.1 73.4239 258.74 74.4445 262.28 74.5645L263 74.5762C266.12 74.5762 269.127 73.5353 272.022 71.4541L272.6 71.0244C273.992 69.9448 275.307 68.4096 276.548 66.4219C277.202 68.2362 278.154 69.7383 279.404 70.9277C281.864 73.2077 285.225 74.419 289.484 74.5615L290.349 74.5762C299.693 74.5762 305.229 69.8401 306.957 60.3682C305.293 61.8401 303.437 63.0556 301.389 64.0156L301.006 64.1904C299.101 65.034 297.309 65.456 295.629 65.4561M195.907 65.2637C197.587 65.2637 199.042 64.6171 200.272 63.3232L200.516 63.0557C201.715 61.6157 202.69 59.6978 203.44 57.3018L203.587 56.8164L210.115 26H223.939L217.027 58.6396L216.938 59.0029C216.741 59.8569 216.644 60.7599 216.644 61.7119L216.657 62.1758C216.72 63.2185 217.003 63.9921 217.507 64.4961C218.067 64.9441 218.921 65.196 220.069 65.252L220.579 65.2637M295.629 65.4561V64.4561M295.629 65.4561L295.263 65.4482C291.659 65.2927 289.799 62.8028 289.683 57.9785L289.677 57.4883C289.677 56.9763 289.741 56.0162 289.869 54.6084C293.469 54.3684 296.872 53.4532 300.078 51.8633L300.717 51.5361C303.897 49.796 306.487 47.5496 308.485 44.7969L308.877 44.2402C310.797 41.4202 311.817 38.3468 311.937 35.0205L311.949 34.3516C311.949 28.3997 308.645 25.3304 302.038 25.1445L301.389 25.1357C295.373 25.1358 290.413 27.0882 286.509 30.9922L286.146 31.3545C282.43 35.1189 279.734 39.574 278.061 44.7197L277.747 45.7109C276.228 50.6382 275.469 55.1717 275.469 59.3115C275.469 59.4934 275.47 59.674 275.474 59.8525C274.771 61.2576 274.07 62.3898 273.368 63.248L273.147 63.4922C272.022 64.6734 270.56 65.2637 268.76 65.2637M295.629 64.4561C293.89 64.4561 292.731 63.8893 291.966 62.8652C291.16 61.7864 290.677 60.0484 290.677 57.4883C290.677 57.1262 290.714 56.4811 290.792 55.5342C294.454 55.1814 297.921 54.1438 301.184 52.4199L301.19 52.417L301.197 52.4131C304.719 50.4861 307.561 47.9495 309.703 44.8027L310.096 44.2041C311.994 41.1937 312.949 37.9027 312.949 34.3516C312.949 31.0875 312.007 28.4678 309.966 26.6865C307.951 24.9281 305.032 24.1357 301.389 24.1357C295.137 24.1358 289.916 26.1739 285.808 30.2793C281.913 34.1105 279.068 38.655 277.279 43.9004L277.109 44.4111C275.357 49.7974 274.469 54.7672 274.469 59.3115C274.469 59.4143 274.47 59.5172 274.471 59.6191C273.834 60.8675 273.21 61.8582 272.602 62.6035C271.658 63.7008 270.412 64.2637 268.76 64.2637M268.76 65.2637V64.2637M268.76 65.2637L268.501 65.2598C267.314 65.2213 266.446 64.9136 265.896 64.3359L265.784 64.208C265.28 63.592 264.997 62.7554 264.934 61.6982L264.92 61.2324C264.92 60.1445 265.112 58.6722 265.496 56.8164C265.832 55.3766 266.186 53.9182 266.558 52.4424L266.936 50.96C267.664 48.1041 268.245 45.6403 268.679 43.5684L268.856 42.7041C269.248 40.6883 269.469 38.8438 269.518 37.1709L269.528 36.4639C269.528 32.9299 268.627 30.2668 266.825 28.4746L266.648 28.3037C264.849 26.6238 262.458 25.732 259.477 25.627L258.872 25.6162C254.584 25.6162 250.84 27.4082 247.64 30.9922L248.696 26H234.872L228.304 56.9805C227.54 59.4636 226.502 61.4571 225.188 62.96C223.907 64.496 222.371 65.2637 220.579 65.2637M268.76 64.2637C267.486 64.2636 266.859 63.9436 266.558 63.5752C266.177 63.1104 265.92 62.3739 265.92 61.2324C265.92 60.2446 266.097 58.8492 266.476 57.0186L266.475 57.0176C266.919 55.1136 267.396 53.178 267.904 51.21L267.905 51.207C268.74 47.9334 269.384 45.1633 269.837 42.9004L269.838 42.8945C270.295 40.5435 270.528 38.398 270.528 36.4639C270.528 32.6497 269.522 29.6187 267.33 27.5732C265.183 25.569 262.325 24.6162 258.872 24.6162C255.31 24.6162 252.109 25.776 249.286 28.042L249.93 25H234.062L227.335 56.7275C226.602 59.095 225.627 60.9392 224.435 62.3018L224.419 62.3193C223.304 63.6571 222.038 64.2637 220.579 64.2637M130.586 65.2637C131.738 65.2637 132.762 65.0725 133.658 64.6885C133.402 67.8882 132.25 70.3522 130.202 72.0801L129.825 72.3818C127.92 73.8443 125.678 74.5762 123.098 74.5762L122.528 74.5645C119.716 74.4519 117.41 73.496 115.61 71.6963C114.395 70.4388 113.58 68.7686 113.16 66.6875C111.969 68.5466 110.71 69.9934 109.381 71.0244L108.804 71.4541C105.909 73.5353 102.901 74.5762 99.7812 74.5762L99.0615 74.5645C95.5215 74.4445 92.8816 73.4239 91.1416 71.5039C89.4617 69.524 88.5689 67.1224 88.4639 64.2988L88.4531 63.7275C88.4532 62.3837 88.6136 60.8796 88.9336 59.2158C89.0936 58.3519 89.2531 57.5038 89.4131 56.6719L89.8936 54.2236C90.2774 52.6243 90.5331 51.6005 90.6611 51.1523C91.0451 49.4724 91.4108 47.81 91.7588 46.166L92.1016 44.5283C92.4936 42.6243 92.7137 41.0385 92.7627 39.7715L92.7734 39.248C92.7734 36.0862 91.6923 34.4554 89.5303 34.3564L89.3174 34.3516C87.6535 34.3516 86.1813 35.1838 84.9014 36.8477L84.6641 37.1543C83.4942 38.7142 82.549 40.7239 81.8291 43.1836L75.3008 74H61.4775L71.6533 26H85.4775L84.4209 30.9922C87.6209 27.4082 91.3653 25.6162 95.6533 25.6162L96.2578 25.627C99.2389 25.732 101.63 26.6238 103.43 28.3037L103.606 28.4746C105.408 30.2668 106.31 32.9299 106.31 36.4639L106.299 37.1709C106.25 38.8438 106.03 40.6883 105.638 42.7041L105.46 43.5684C105.026 45.6403 104.445 48.1041 103.717 50.96L103.339 52.4424C102.967 53.9182 102.613 55.3766 102.277 56.8164C101.893 58.6722 101.701 60.1445 101.701 61.2324L101.715 61.6982C101.778 62.7554 102.061 63.592 102.565 64.208L102.678 64.3359C103.227 64.9136 104.096 65.2213 105.282 65.2598L105.541 65.2637M130.586 65.2637V64.2637M130.586 65.2637L130.076 65.252C128.928 65.196 128.074 64.9441 127.514 64.4961C127.01 63.9921 126.726 63.2186 126.663 62.1758L126.65 61.7119C126.65 60.7599 126.748 59.8569 126.944 59.0029L127.034 58.6396L133.946 26H120.122L113.594 56.8164C113.59 56.8337 113.586 56.8509 113.583 56.8682C112.438 59.7216 111.294 61.8486 110.149 63.248L109.929 63.4922C108.804 64.6734 107.341 65.2637 105.541 65.2637M130.586 64.2637C131.627 64.2637 132.513 64.0904 133.264 63.7686L134.787 63.1162L134.655 64.7676C134.383 68.1771 133.138 70.9112 130.847 72.8447L130.845 72.8467C128.669 74.6716 126.069 75.5762 123.098 75.5762C119.799 75.5761 117.036 74.5358 114.903 72.4033L114.896 72.3975L114.891 72.3906C113.971 71.4393 113.27 70.2967 112.771 68.9785C111.889 70.1142 110.965 71.0619 109.994 71.8145L109.992 71.8164C106.775 74.296 103.365 75.5762 99.7812 75.5762C95.7147 75.5762 92.5137 74.5075 90.4004 72.1758L90.3896 72.1631L90.3789 72.1514C88.4166 69.8386 87.4531 67.0089 87.4531 63.7275C87.4532 62.3065 87.6222 60.738 87.9512 59.0273C88.2715 57.2975 88.5925 55.6312 88.9131 54.0283L88.916 54.0088L88.9209 53.9902C89.2921 52.4437 89.5492 51.4126 89.6875 50.9209C90.1973 48.6905 90.6761 46.4922 91.1221 44.3262C91.564 42.1797 91.7734 40.4948 91.7734 39.248C91.7734 37.7032 91.4956 36.723 91.0928 36.1523C90.735 35.6455 90.2017 35.3516 89.3174 35.3516C88.0435 35.3516 86.8395 35.9693 85.6943 37.458L85.6885 37.4648L85.6826 37.4727C84.5117 38.9363 83.5405 40.9087 82.7988 43.4307L76.1113 75H60.2432L70.8428 25H86.7109L86.0674 28.042C88.8907 25.776 92.0915 24.6162 95.6533 24.6162C99.1062 24.6162 101.964 25.569 104.111 27.5732C106.303 29.6187 107.31 32.6497 107.31 36.4639C107.31 38.398 107.076 40.5435 106.619 42.8945L106.618 42.9004C106.166 45.1633 105.521 47.9334 104.687 51.207L104.686 51.21C104.178 53.178 103.7 55.1136 103.256 57.0176L103.257 57.0186C102.878 58.8492 102.701 60.2446 102.701 61.2324C102.701 62.3739 102.959 63.1104 103.339 63.5752C103.64 63.9436 104.268 64.2636 105.541 64.2637M130.586 64.2637C129.307 64.2637 128.571 64.0306 128.184 63.7461C127.895 63.4284 127.65 62.8235 127.65 61.7119C127.65 60.7028 127.768 59.7658 128 58.8975L128.007 58.873L128.013 58.8477L133.824 31.4033C134.283 32.8612 135.016 34.0759 136.066 35.0049L136.081 35.0186L136.097 35.0312C138.078 36.6457 140.939 37.3682 144.505 37.3682H145.505V36.3682C145.505 36.1439 145.43 35.9369 145.406 35.8701C145.366 35.7561 145.313 35.6256 145.253 35.4873C145.132 35.2116 144.958 34.8478 144.735 34.4023C144.39 33.6572 144.16 32.1917 144.16 29.8398C144.16 22.699 145.719 18.0391 148.533 15.5117C151.482 12.8581 155.635 11.4626 161.123 11.4482L147.491 75H163.36L176.57 13.541C179.886 14.2077 182.492 14.6929 184.382 14.9883L185.169 15.1035C187.005 15.3546 188.843 15.4805 190.681 15.4805C194.744 15.4804 197.985 14.4458 200.22 12.2109L200.426 11.998C202.521 9.76522 203.552 6.47758 203.68 2.31836L203.728 0.787109L202.306 1.36035C199.112 2.6499 195.53 3.30367 191.545 3.30371M105.541 64.2637V65.2637M105.541 64.2637C107.193 64.2637 108.439 63.7008 109.383 62.6035C110.421 61.3307 111.506 59.342 112.621 56.5771L119.312 25H133.312C133.423 23.5037 133.658 22.0516 134.018 20.6436C132.718 21.423 131.248 21.8164 129.626 21.8164C127.401 21.8164 125.463 21.0791 123.859 19.6172L123.543 19.3154C121.88 17.653 121.042 15.6051 121.042 13.2324C121.042 11.0077 121.779 9.06848 123.241 7.46484L123.543 7.14844C125.199 5.42758 127.246 4.55177 129.626 4.55176C131.999 4.55176 134.04 5.42312 135.693 7.13379C137.116 8.49687 137.962 10.1259 138.22 11.9873C140.55 9.01017 143.765 6.56952 147.82 4.64844L147.825 4.64648L148.307 4.42578C153.327 2.18891 159.562 1.0957 166.969 1.0957C170.985 1.09572 175.276 1.43794 179.84 2.11914L180.757 2.25977L180.77 2.2627L182.269 2.50781C185.715 3.04076 188.807 3.30371 191.545 3.30371M191.545 3.30371V4.30371M191.545 4.30371L190.939 4.2998C187.887 4.25857 184.441 3.90805 180.601 3.24805C176.041 2.52807 171.762 2.14561 167.765 2.10059L166.969 2.0957C159.417 2.0957 153.176 3.24776 148.248 5.55176C143.384 7.8557 139.833 10.896 137.593 14.6719C135.353 18.3838 134.232 22.5118 134.232 27.0557C134.232 30.3836 135.065 32.7839 136.729 34.2559C138.457 35.6639 141.049 36.3682 144.505 36.3682C144.505 36.2722 144.379 35.9597 144.127 35.4316L143.832 34.832C143.44 33.9921 143.22 32.613 143.171 30.6953L143.16 29.8398C143.16 22.8337 144.632 17.8997 147.575 15.0381L147.864 14.7676C150.964 11.9777 155.236 10.5394 160.678 10.4521L161.209 10.4482H162.36L148.729 74H162.553L175.801 12.3682C179.576 13.1361 182.488 13.68 184.536 14C186.328 14.28 188.12 14.4376 189.912 14.4727L190.681 14.4805C194.462 14.4804 197.343 13.5491 199.323 11.6875L199.513 11.5039C201.497 9.51991 202.553 6.44795 202.681 2.28809C199.353 3.63204 195.641 4.30367 191.545 4.30371ZM220.579 64.2637V65.2637M301.665 41.2607L301.661 41.2686C300.529 43.3629 299.03 45.1065 297.159 46.5078L296.78 46.7832L296.769 46.791C295.198 47.9334 293.551 48.6245 291.82 48.8848C292.881 44.4426 294.379 40.4313 296.313 36.8467L296.314 36.8477C297.407 34.8502 298.464 33.4189 299.472 32.498C300.474 31.582 301.364 31.2236 302.157 31.2236C302.626 31.2237 302.893 31.3852 303.103 31.7285C303.361 32.1524 303.557 32.9172 303.557 34.1602C303.557 36.6049 302.932 38.9678 301.665 41.2607ZM301.665 41.2607L302.541 41.7441M302.541 41.7441L302.296 42.1836C301.043 44.3548 299.396 46.1596 297.356 47.5996L296.959 47.8789C294.96 49.2327 292.821 49.94 290.541 50C291.629 44.9441 293.261 40.4001 295.437 36.3682C297.677 32.2722 299.917 30.2236 302.157 30.2236L302.305 30.2275C303.806 30.3071 304.557 31.6183 304.557 34.1602L304.549 34.6504C304.47 37.0993 303.801 39.464 302.541 41.7441ZM0.864258 41.8398C0.864299 39.3797 1.81518 37.1602 3.62793 35.208L3.63379 35.2002L3.64062 35.1943C5.50187 33.2642 8.01411 31.7847 11.124 30.7236L11.7148 30.5176C14.6871 29.523 17.9346 29.0322 21.4482 29.0322C22.6922 29.0322 24.186 29.1134 25.9248 29.2695C31.1128 21.126 36.5936 14.438 42.3779 9.22559L42.9385 8.72656C48.7256 3.65304 54.3684 1 59.8486 1C63.008 1.00004 65.6888 1.45942 67.8438 2.43262L68.5781 2.76465L53.1699 75H37.3018L44.7822 39.7334C43.0244 38.9575 41.3903 38.3536 39.8779 37.9189L39.1504 37.7207C37.4311 37.277 35.6069 36.9561 33.6768 36.7588C30.1831 44.3808 27.2913 52.1823 25.002 60.1641C22.7085 68.3195 21.584 74.7758 21.584 79.5684C21.584 81.9132 22.0231 83.4369 22.7178 84.3301L23.9727 85.9443H21.9287C19.8118 85.9443 17.8983 85.7944 16.1953 85.4873L15.4785 85.3457C13.465 84.9142 11.7175 83.8694 10.2461 82.2578L10.2373 82.249L10.2295 82.2402C8.72222 80.5068 8.06445 77.9491 8.06445 74.7676C8.06454 70.3096 9.38907 64.4226 11.9619 57.1543L11.9639 57.1465L12.4697 55.7793C14.8383 49.4875 17.805 43.1774 21.3672 36.8486C19.2962 37.0701 17.6148 37.4353 16.3037 37.9297L15.9746 38.0596C14.6104 38.6241 13.705 39.4067 13.1709 40.3896C13.3529 40.6393 13.5034 40.9383 13.6299 41.251C14.0019 42.013 14.1924 42.8205 14.1924 43.6641C14.1924 45.1748 13.4928 46.3992 12.2227 47.2725L12.2051 47.2842L12.1865 47.2959C10.9657 48.0589 9.48932 48.4082 7.81641 48.4082C5.96395 48.4082 4.35852 47.9393 3.08496 46.9277L2.83496 46.7178C1.48256 45.5245 0.864258 43.8458 0.864258 41.8398ZM46.792 34.9277C43.5921 33.5838 39.6879 32.4643 35.0801 31.5684C37.8961 25.8724 40.7767 21.0403 43.7207 17.0723C46.7287 13.0403 49.6084 10.2884 52.3604 8.81641L46.792 34.9277ZM50.8809 10.9521C48.8747 12.4548 46.7528 14.6777 44.5225 17.667L44.5234 17.668C41.8246 21.3055 39.169 25.6958 36.5596 30.8467C40.16 31.601 43.3295 32.503 46.0615 33.5566L50.8809 10.9521ZM1.87109 42.1709C1.9348 43.8021 2.47618 45.0677 3.49609 45.9678C4.51609 46.8678 5.84563 47.3461 7.48438 47.4023L7.81641 47.4082C9.25618 47.4082 10.471 47.1268 11.4609 46.5645L11.6562 46.4482C12.6164 45.7881 13.1266 44.9309 13.1865 43.877L13.1924 43.6641C13.1924 42.9601 13.0318 42.2884 12.7119 41.6484C12.4559 41.0085 12.2003 40.6885 11.9443 40.6885C12.4843 39.1885 13.5869 38.0539 15.252 37.2852L15.5918 37.1357C17.4477 36.3678 19.976 35.8883 23.1758 35.6963C18.9519 42.9921 15.5282 50.2564 12.9043 57.4883L12.4395 58.8271C10.1896 65.4343 9.06453 70.7477 9.06445 74.7676L9.07129 75.335C9.14633 78.1211 9.78442 80.204 10.9844 81.584C12.3284 83.056 13.8965 83.9842 15.6885 84.3682C17.4804 84.7521 19.5608 84.9443 21.9287 84.9443C21.0887 83.8644 20.6424 82.2216 20.5898 80.0166L20.584 79.5684C20.584 74.6404 21.736 68.0797 24.04 59.8877C26.408 51.6318 29.4165 43.5682 33.0645 35.6963C35.3044 35.8883 37.4165 36.24 39.4004 36.752C41.3844 37.264 43.5608 38.0644 45.9287 39.1523L38.5361 74H52.3604L67.4326 3.34375C65.5726 2.50376 63.2342 2.05739 60.418 2.00488L59.8486 2C54.5366 2 48.9359 4.65577 43.0479 9.96777L42.5029 10.4648C36.8785 15.6418 31.5243 22.2604 26.4404 30.3203L25.0127 30.1943C23.8723 30.1043 22.857 30.0511 21.9668 30.0361L21.4482 30.0322C17.8002 30.0322 14.4719 30.5761 11.4639 31.6641L10.9082 31.8604C8.16311 32.8653 5.98042 34.2077 4.36035 35.8877C2.69639 37.6797 1.8643 39.6639 1.86426 41.8398L1.87109 42.1709ZM122.051 13.624C122.137 15.5666 122.87 17.2283 124.25 18.6084C125.63 19.9882 127.291 20.7213 129.233 20.8076L129.626 20.8164C131.738 20.8164 133.53 20.0802 135.002 18.6084C136.442 17.2283 137.207 15.5666 137.297 13.624L137.306 13.2324C137.306 11.2525 136.631 9.55322 135.281 8.13574L134.723 7.57715C133.4 6.31704 131.832 5.64461 130.019 5.56055L129.626 5.55176C127.514 5.55177 125.722 6.32045 124.25 7.85645C122.778 9.3284 122.042 11.1205 122.042 13.2324L122.051 13.624Z" stroke="white"/>
</svg>
